<svg width="26" height="22" viewBox="0 0 26 22" fill="none" xmlns="http://www.w3.org/2000/svg">
<path d="M23.4998 19.1667H25.8332V21.5H0.166504V19.1667H2.49984V1.66667C2.49984 1.35725 2.62275 1.0605 2.84155 0.841709C3.06034 0.622916 3.35708 0.5 3.6665 0.5H15.3332C15.6426 0.5 15.9393 0.622916 16.1581 0.841709C16.3769 1.0605 16.4998 1.35725 16.4998 1.66667V19.1667H18.8332V7.5H22.3332C22.6426 7.5 22.9393 7.62292 23.1581 7.84171C23.3769 8.0605 23.4998 8.35725 23.4998 8.66667V19.1667ZM7.1665 9.83333V12.1667H11.8332V9.83333H7.1665ZM7.1665 5.16667V7.5H11.8332V5.16667H7.1665Z" fill="#FF7132"/>
</svg>
