<svg width="26" height="22" viewBox="0 0 26 22" fill="none" xmlns="http://www.w3.org/2000/svg">
<path d="M1.33366 19.1667V6.33333H0.166992V4H3.66699V1.66667C3.66699 1.35725 3.78991 1.0605 4.0087 0.841709C4.22749 0.622916 4.52424 0.5 4.83366 0.5H21.167C21.4764 0.5 21.7732 0.622916 21.992 0.841709C22.2107 1.0605 22.3337 1.35725 22.3337 1.66667V4H25.8337V6.33333H24.667V19.1667H25.8337V21.5H0.166992V19.1667H1.33366ZM14.167 19.1667V11H11.8337V19.1667H14.167ZM8.33366 19.1667V11H6.00033V19.1667H8.33366ZM20.0003 19.1667V11H17.667V19.1667H20.0003ZM6.00033 2.83333V4H20.0003V2.83333H6.00033Z" fill="#F7D16D"/>
</svg>
